#!OML:ASF H:\Terrain\Patient Classification 1\Walking\liu\liu.ASF
:FULLY-SPECIFIED
:DEGREES
356
root 9.269330 17.079201 14.168300 6.590900 8.528720 -2.180270
lowerback -3.112685 -1.087395 -0.474030
upperback -0.731810 -1.451255 1.442925
thorax 1.087835 -0.729130 1.636830
lowerneck -9.758700 -3.007920 -6.661700
upperneck 10.229300 -3.936965 7.054150
head 5.482750 -1.526435 3.087715
rclavicle 0.000000 0.000000
rhumerus -20.827950 6.359300 -42.448650
rradius 19.654400
rwrist -11.374600
rhand -15.284400 -14.146450
rfingers 3.562510
rthumb -1.933365 -29.118799
lclavicle 0.000000 0.000000
lhumerus -18.984350 -10.720000 49.838799
lradius 12.636750
lwrist 3.610280
lhand -5.036450 -9.883450
lfingers 3.562510
lthumb 7.956700 4.799635
rfemur -11.536550 2.106725 13.456900
rtibia 16.386749
rfoot -7.245300 0.660790
rtoes -5.603150
lfemur -8.195350 4.006870 -7.127850
ltibia 32.110451
lfoot -2.294075 5.588700
ltoes -2.449655
357
root 9.265800 17.086901 14.287000 6.525390 8.205210 -2.220000
lowerback -3.068325 -1.002110 -0.444795
upperback -0.658410 -1.340385 1.424375
thorax 1.129310 -0.674685 1.610680
lowerneck -9.917750 -3.037415 -6.644000
upperneck 10.257600 -3.965685 7.046150
head 5.527450 -1.532805 3.077225
rclavicle 0.000000 -0.000000
rhumerus -20.464399 6.735450 -42.511902
rradius 19.795549
rwrist -11.409100
rhand -15.044000 -13.106500
rfingers 3.562510
rthumb -1.701240 -28.082800
lclavicle 0.000000 -0.000000
lhumerus -19.365950 -11.198500 49.994549
lradius 12.913850
lwrist 4.394420
lhand -5.869800 -10.007700
lfingers 3.562510
lthumb 7.154000 4.735830
rfemur -11.211000 2.309195 13.521850
rtibia 16.257549
rfoot -7.418150 0.597660
rtoes -6.135600
lfemur -8.901350 3.939200 -7.276300
ltibia 32.302200
lfoot -2.835345 5.387050
ltoes -2.137285
358
root 9.267740 17.092300 14.413100 6.423040 7.906170 -2.196570
lowerback -3.002060 -0.901580 -0.407879
upperback -0.633505 -1.207985 1.390155
thorax 1.106505 -0.608280 1.567120
lowerneck -9.898250 -3.058990 -6.689750
upperneck 10.288650 -3.987895 7.047250
head 5.540900 -1.547040 3.083225
rclavicle 0.000000 0.000000
rhumerus -20.299400 7.031100 -42.553600
rradius 20.037300
rwrist -11.478800
rhand -15.094750 -13.582050
rfingers 3.562510
rthumb -1.750220 -28.557550
lclavicle 0.000000 0.000000
lhumerus -19.826450 -11.297850 50.034500
lradius 13.231100
lwrist 4.643350
lhand -6.892950 -10.341250
lfingers 3.562510
lthumb 6.167800 4.466825
rfemur -10.862300 2.402220 13.557800
rtibia 16.132851
rfoot -7.546600 0.626710
rtoes -6.218600
lfemur -9.498700 3.836010 -7.514850
ltibia 32.400349
lfoot -3.306240 5.399800
ltoes -2.377620
359
root 9.265720 17.089500 14.529900 6.408350 7.656680 -2.412340
lowerback -2.900470 -0.823755 -0.311560
upperback -0.718215 -1.108075 1.418000
thorax 0.953820 -0.555855 1.553880
lowerneck -9.699450 -3.039025 -6.760750
upperneck 10.295200 -3.978655 7.107450
head 5.509650 -1.549380 3.121835
rclavicle -0.000000 -0.000000
rhumerus -20.254450 7.249250 -42.588848
rradius 20.235849
rwrist -11.444450
rhand -15.272050 -13.999200
rfingers 3.562510
rthumb -1.921440 -28.971750
lclavicle -0.000000 -0.000000
lhumerus -20.321650 -11.080200 49.994549
lradius 13.418000
lwrist 4.529345
lhand -7.325750 -10.633650
lfingers 3.562510
lthumb 5.750400 4.198595
rfemur -10.598000 2.490870 13.733400
rtibia 16.012650
rfoot -7.674150 0.643765
rtoes -6.267400
lfemur -10.199900 3.813155 -7.587450
ltibia 32.451099
lfoot -3.619490 5.465100
ltoes -2.595865
360
root 9.268170 17.092800 14.642100 6.451420 7.447120 -2.516700
lowerback -2.890250 -0.761465 -0.268137
upperback -0.676265 -1.028915 1.437825
thorax 0.985815 -0.516775 1.555720
lowerneck -9.793200 -3.048470 -6.773000
upperneck 10.307600 -3.977400 7.107500
head 5.532700 -1.546130 3.124375
rclavicle 0.000000 -0.000000
rhumerus -19.866600 7.498850 -42.556149
rradius 20.324400
rwrist -11.424300
rhand -15.191050 -13.093350
rfingers 3.562510
rthumb -1.843215 -28.067301
lclavicle 0.000000 -0.000000
lhumerus -20.534849 -11.008550 49.944950
lradius 13.499700
lwrist 4.726065
lhand -7.441500 -10.899450
lfingers 3.562510
lthumb 5.638800 3.938975
rfemur -10.316500 2.583770 13.824850
rtibia 15.906100
rfoot -7.901500 0.734330
rtoes -6.152500
lfemur -10.953250 3.720590 -7.706450
ltibia 32.441952
lfoot -3.912370 5.454150
ltoes -2.101995
361
root 9.277850 17.099800 14.770900 6.466980 7.288030 -2.288820
lowerback -2.989690 -0.693820 -0.329387
upperback -0.511015 -0.938540 1.392010
thorax 1.206725 -0.475174 1.545690
lowerneck -10.191900 -3.093905 -6.645800
upperneck 10.432250 -3.986155 6.884500
head 5.639900 -1.549300 3.017135
rclavicle 0.000000 0.000000
rhumerus -19.332500 7.795300 -42.476551
rradius 20.523251
rwrist -11.540350
rhand -15.037800 -12.779500
rfingers 3.562510
rthumb -1.695225 -27.755899
lclavicle 0.000000 0.000000
lhumerus -20.643600 -11.137450 49.938351
lradius 13.672700
lwrist 5.244450
lhand -7.662450 -11.094800
lfingers 3.562510
lthumb 5.425650 3.755005
rfemur -9.974950 2.578830 13.736400
rtibia 15.801450
rfoot -8.132300 0.839750
rtoes -6.196750
lfemur -11.612450 3.511740 -8.021950
ltibia 32.368851
lfoot -4.275860 5.482300
ltoes -1.866150
362
root 9.279490 17.093000 14.894600 6.564460 7.077550 -2.140770
lowerback -2.939020 -0.681855 -0.398643
upperback -0.695640 -0.912825 1.341330
thorax 0.987055 -0.459044 1.537495
lowerneck -9.789800 -2.970365 -6.449950
upperneck 10.546450 -3.880485 6.682350
head 5.567900 -1.522450 2.928985
rclavicle 0.000000 0.000000
rhumerus -19.520550 8.160900 -42.683350
rradius 20.878799
rwrist -11.634900
rhand -15.094050 -13.208750
rfingers 3.562510
rthumb -1.749560 -28.184250
lclavicle 0.000000 0.000000
lhumerus -21.399349 -10.805600 49.896149
lradius 13.948950
lwrist 5.503100
lhand -7.681750 -11.085750
lfingers 3.562510
lthumb 5.407050 3.765070
rfemur -9.733100 2.647865 13.708900
rtibia 15.713900
rfoot -8.316850 0.788535
rtoes -6.520900
lfemur -12.320700 3.369960 -8.276650
ltibia 32.286301
lfoot -4.686100 5.527800
ltoes -2.445330
363
root 9.281560 17.083700 15.006500 6.638060 6.801240 -2.321110
lowerback -2.844350 -0.607040 -0.275437
upperback -0.792245 -0.817175 1.320875
thorax 0.825015 -0.408549 1.457050
lowerneck -9.717250 -2.979175 -6.424300
upperneck 10.626800 -3.924875 6.704450
head 5.590550 -1.540345 2.929240
rclavicle 0.000000 -0.000000
rhumerus -19.453850 8.323450 -42.768200
rradius 21.141300
rwrist -11.632850
rhand -15.233350 -13.346250
rfingers 3.562510
rthumb -1.884060 -28.319500
lclavicle 0.000000 -0.000000
lhumerus -21.799650 -10.522850 49.664799
lradius 14.096500
lwrist 5.379850
lhand -7.321300 -11.022250
lfingers 3.562510
lthumb 5.754700 3.809760
rfemur -9.488750 2.798435 13.839450
rtibia 15.663350
rfoot -8.638950 0.794650
rtoes -7.112100
lfemur -13.037600 3.337100 -8.342300
ltibia 32.175598
lfoot -5.028700 5.538200
ltoes -2.828380
